inDegrees=no
num_controls=7
num_derivatives=13
num_iterations=153
num_multipliers=7
num_parameters=0
num_slacks=7
num_states=26
objective=0.499063
objective_accelerations=0.043909
objective_balance=0.004268
objective_effort=0.036337
objective_height=0.303632
objective_ligament=0.110917
solver_duration=1962.842767
status=Solve_Succeeded
success=true
DataType=double
version=3
OpenSimVersion=4.5
endheader
time	/jointset/ground_pelvis/pelvis_tilt/value	/jointset/ground_pelvis/pelvis_tx/value	/jointset/ground_pelvis/pelvis_ty/value	/jointset/hip_l/hip_flexion_l/value	/jointset/hip_l/hip_adduction_l/value	/jointset/hip_l/hip_rotation_l/value	/jointset/back/lumbar_extension/value	/jointset/patellofemoral_l/patellar_flexion_l/value	/jointset/knee_l/knee_flexion_l/value	/jointset/knee_l/knee_adduction_l/value	/jointset/knee_l/knee_rotation_l/value	/jointset/ankle_l/ankle_angle_l/value	/jointset/subtalar_l/subtalar_angle_l/value	/jointset/ground_pelvis/pelvis_tilt/speed	/jointset/ground_pelvis/pelvis_tx/speed	/jointset/ground_pelvis/pelvis_ty/speed	/jointset/hip_l/hip_flexion_l/speed	/jointset/hip_l/hip_adduction_l/speed	/jointset/hip_l/hip_rotation_l/speed	/jointset/back/lumbar_extension/speed	/jointset/patellofemoral_l/patellar_flexion_l/speed	/jointset/knee_l/knee_flexion_l/speed	/jointset/knee_l/knee_adduction_l/speed	/jointset/knee_l/knee_rotation_l/speed	/jointset/ankle_l/ankle_angle_l/speed	/jointset/subtalar_l/subtalar_angle_l/speed	/forceset/tau_hip_flexion_l	/forceset/tau_hip_adduction_l	/forceset/tau_hip_rotation_l	/forceset/tau_knee_flexion_l	/forceset/tau_ankle_angle_l	/forceset/tau_subtalar_angle_l	/forceset/tau_lumbar_extension	lambda_cid13_p0	lambda_cid13_p1	lambda_cid13_p2	lambda_cid13_p3	lambda_cid13_p4	lambda_cid13_p5	lambda_cid14_p0	/jointset/ground_pelvis/pelvis_tilt/accel	/jointset/ground_pelvis/pelvis_tx/accel	/jointset/ground_pelvis/pelvis_ty/accel	/jointset/hip_l/hip_flexion_l/accel	/jointset/hip_l/hip_adduction_l/accel	/jointset/hip_l/hip_rotation_l/accel	/jointset/back/lumbar_extension/accel	/jointset/patellofemoral_l/patellar_flexion_l/accel	/jointset/knee_l/knee_flexion_l/accel	/jointset/knee_l/knee_adduction_l/accel	/jointset/knee_l/knee_rotation_l/accel	/jointset/ankle_l/ankle_angle_l/accel	/jointset/subtalar_l/subtalar_angle_l/accel	gamma_cid13_p0	gamma_cid13_p1	gamma_cid13_p2	gamma_cid13_p3	gamma_cid13_p4	gamma_cid13_p5	gamma_cid14_p0
1.5	-0.07509179262143255	-0.05682114765209614	0.8414022518591258	0.8012922603392484	-0.3026829265681129	-0.1616812546913386	-0.8165965131690394	0.7228257074936267	0.7228257074936262	-0.06931876485351622	-0.1701035808188069	0.05481344633500181	0.01066632401939376	0.6050578807371171	0.2771215111190903	0.4704014574485189	-2.322059174154924	0.1789265718177279	-0.7011133270816187	0.8370792648827923	-1.922475759208309	-1.922475759208297	0.06666919657129605	-0.01587689595703607	-0.2649022143558014	0.1079553805901754	-0.2603517373662689	0.04513202526584346	-0.007715286914118919	-0.182986902401583	0.1216496210700782	0.02808155176425182	0.3169548418234981	-3.672222185894739	-12.32711413821369	2.395380877490226	-13.11534633083299	-667.8005540171814	-54.84783947354531	-17.12870182312473	0.3257393937346162	0.9065179916850384	-0.6301268007454919	-0.8072299956233849	0.710809185196139	0.05011896605902045	2.303173479557592	-0.4217817859142322	-0.4217817859142368	0.02660810349783805	-0.06573275860932824	0.356803111930535	0.8395862940460521	3.193191955748829e-07	8.500015589193566e-07	-1.269863022080177e-06	-2.235503476051954e-08	3.709312852935158e-07	7.148342245071226e-09	3.013048171470226e-07
1.51	-0.0690253188151069	-0.05400475884455067	0.8460739495951769	0.7780330769429304	-0.3008596723381935	-0.1686885991450617	-0.8081121897202697	0.7035819628108939	0.7035819628108904	-0.06865387043658301	-0.1702665348400067	0.05218252804312232	0.01178622593698314	0.6081523049543486	0.2861360839667656	0.4638489614272626	-2.329484329239079	0.1856860961107256	-0.7002407519386805	0.8596746464692199	-1.925999552214552	-1.925999552214551	0.06625251604446498	-0.01669666704944617	-0.2612027119819902	0.1160077595061548	-0.2505739032703306	0.04398273400005324	-0.007703302541217076	-0.1810240549248681	0.1223593280234723	0.02722131393969288	0.3083350657948473	-3.162173777897215	-12.09942226969709	2.423734987948168	-13.12276050806674	-662.6153382031139	-54.98786477123631	-17.79281340094015	0.2886394929865478	0.8958995425939471	-0.6811018474552993	-0.6661429028209392	0.6528136692313578	0.123338977760986	2.221103737910195	-0.2766948428298483	-0.276694842831585	-0.08425810629074987	-0.08778071360272037	0.3883699776031949	0.7854742851097604	3.160893949533274e-07	9.012862067173096e-07	-1.25446857394845e-06	-1.560380797284295e-08	3.848549210188731e-07	3.881484456232528e-08	3.022698690842592e-07
1.52	-0.06293043165515651	-0.05109882978627145	0.8506774642020879	0.7547084450681671	-0.2989699649417722	-0.1756837154094827	-0.7994052358076906	0.6843111768411287	0.6843111768411212	-0.06799483322001873	-0.170437222857939	0.04959097401047989	0.0129861337626795	0.6107405514623464	0.2950295612658413	0.4567648316204284	-2.335148869843609	0.192217205118917	-0.6986676892217516	0.8816053576446429	-1.927884016614817	-1.927884016614828	0.06549775649694642	-0.01742369530368979	-0.2570293625083077	0.1239565622115692	-0.2407960691743951	0.04283344273425933	-0.007691318168336616	-0.1790612074481546	0.1230690349768654	0.02636107611513032	0.2997152897661957	-2.649251338503257	-11.87464930499727	2.455314833092491	-13.19217972929901	-657.4232368831719	-55.17928282963751	-18.4455923137878	0.2245038518879182	0.8822988819650887	-0.7364535578610829	-0.455107099698318	0.6651261282348674	0.1902164808571515	2.170239397356694	-0.09391606471875107	-0.09391606471875227	-0.04100770063966568	-0.04718419097602111	0.4515725319047851	0.8188710519330253	3.083330806958532e-07	9.365532321650516e-07	-1.235590932995596e-06	-4.479552266159686e-09	3.851138131535179e-07	6.892085387751751e-08	3.010407124181984e-07
1.53	-0.05681232063161506	-0.04810467230400957	0.8552075381724582	0.7313360749282952	-0.2970161914280857	-0.1826597870555628	-0.7904824150398404	0.6650296927583966	0.6650296927583864	-0.06734503138378896	-0.1706147626556066	0.04704341425806073	0.01426488541840054	0.6127884960742895	0.3037705683026972	0.449168773299248	-2.33902863140891	0.1984876170659987	-0.696440296851474	0.9028275325288242	-1.928151445282364	-1.928151445282358	0.06439697598478107	-0.01806847003959486	-0.2524190664610242	0.1317603807317341	-0.2308166377705083	0.04143839655070923	-0.007677935220793672	-0.1774218739162885	0.1238937216896176	0.02533528775052614	0.2908872185446749	-2.126377890050469	-11.57713081452577	2.47233839778806	-13.12067036959182	-652.4506078137888	-55.30337712156633	-19.07578990284418	0.1809964906014003	0.8653005287030636	-0.783287698446322	-0.30989550963159	0.6005200232020897	0.2552371857579927	2.078517024480567	0.04598781480639522	0.04598781480901213	-0.1543329236948	-0.07101367892035021	0.4753214178003749	0.7561154231474015	2.957673457002156e-07	9.548015338656943e-07	-1.213012399670297e-06	1.12910466669681e-08	3.70853915223031e-07	9.736883937801911e-08	2.974802091111342e-07
